<?xml version="1.0" encoding="UTF-8"?>
<svg version="1.1" xmlns="http://www.w3.org/2000/svg" width="250" height="250">
<path d="M0 0 C1.5 2.0625 1.5 2.0625 2 4 C0.68 5.65 -0.64 7.3 -2 9 C-1.39671875 9.37511719 -0.7934375 9.75023437 -0.171875 10.13671875 C4.33126466 13.02018076 7.90597024 15.54459715 11 20 C11.99 20.99 11.99 20.99 13 22 C13.845625 21.236875 14.69125 20.47375 15.5625 19.6875 C22.35620698 14.16467123 27.99316501 13.43466592 36.671875 13.65625 C41.3419344 14.13860355 43.47711133 14.87743958 47 18 C49.28749576 23.27118587 50.11101719 28.77640824 48.20703125 34.30078125 C46.54442984 38.19292478 44.79850775 41.78171609 42 45 C42.91136719 45.20882812 43.82273438 45.41765625 44.76171875 45.6328125 C49.88594288 47.79623644 51.15748657 51.58084351 53.5859375 56.37890625 C55.61511036 61.57515829 56.06990805 66.45729063 56 72 C57.27875 71.71125 58.5575 71.4225 59.875 71.125 C60.59429687 70.96257812 61.31359375 70.80015625 62.0546875 70.6328125 C64.20719964 70.09525572 64.20719964 70.09525572 66 68 C68.0625 69.75 68.0625 69.75 70 72 C69.67 73.32 69.34 74.64 69 76 C65.7 76.66 62.4 77.32 59 78 C59 79.32 59 80.64 59 82 C59.61488281 81.97679688 60.22976562 81.95359375 60.86328125 81.9296875 C61.67152344 81.91164063 62.47976562 81.89359375 63.3125 81.875 C64.51326172 81.84019531 64.51326172 81.84019531 65.73828125 81.8046875 C68 82 68 82 71 84 C70.67 84.99 70.34 85.98 70 87 C67.125 88.125 67.125 88.125 64 89 C63.01 89.33 62.02 89.66 61 90 C61.350625 90.61875 61.70125 91.2375 62.0625 91.875 C62.371875 92.57625 62.68125 93.2775 63 94 C62.67 94.66 62.34 95.32 62 96 C62.556875 96.12375 63.11375 96.2475 63.6875 96.375 C70.47252747 98.20879121 70.47252747 98.20879121 73 102 C69.5647952 104.29013653 68.014669 104.17842973 64 104 C64 105.65 64 107.3 64 109 C64.99 109 65.98 109 67 109 C66.67 109.99 66.34 110.98 66 112 C66.33 113.03125 66.66 114.0625 67 115.125 C68.20532297 118.89263207 67.85293782 121.93128894 67.19140625 125.7890625 C66.89087387 128.01405853 66.89087387 128.01405853 67.46875 130.21484375 C68.21742144 134.13986388 68.01400987 137.95393767 67.9375 141.9375 C67.81210963 156.48952411 68.57370285 171.22619522 72.31640625 185.34375 C73.54824908 190.1303393 74.47938 193.82365969 72.75 198.5625 C72.49734375 199.28566406 72.2446875 200.00882813 71.984375 200.75390625 C69.72694786 205.90478168 67.84336882 208.50870194 62.75 211.0625 C59.59604037 212.66412012 56.69063956 214.20822337 53.75 216.1875 C40.33195845 223.85495231 17.05680774 223.74609655 2.375 221.3125 C-0.95004035 220.63245294 -0.95004035 220.63245294 -3 222.4375 C-3.33 222.953125 -3.66 223.46875 -4 224 C-4.350625 223.484375 -4.70125 222.96875 -5.0625 222.4375 C-7.08522165 220.61148952 -7.08522165 220.61148952 -10.625 221.25 C-13.82263935 221.64368085 -13.82263935 221.64368085 -15 223 C-18.47944134 223.53768609 -21.99494836 223.80054281 -25.5 224.125 C-26.48871094 224.22425781 -27.47742188 224.32351562 -28.49609375 224.42578125 C-29.43582031 224.51472656 -30.37554687 224.60367188 -31.34375 224.6953125 C-32.21193359 224.77797363 -33.08011719 224.86063477 -33.97460938 224.94580078 C-34.64298828 224.96368652 -35.31136719 224.98157227 -36 225 C-36.33 224.67 -36.66 224.34 -37 224 C-38.93880948 224.03342775 -40.87761661 224.06700297 -42.81640625 224.1015625 C-45 224 -45 224 -48.5625 222.9375 C-52.45905082 221.87480432 -55.0623734 222.3184877 -59 223 C-59.99 222.67 -60.98 222.34 -62 222 C-64.0079517 222.242339 -66.0158366 222.48524063 -68.0234375 222.73046875 C-78.18476369 223.65058884 -87.84299451 223.50456562 -97.73046875 220.85546875 C-102.62922046 219.57371651 -107.60883217 218.7387339 -112.58984375 217.84375 C-116.07587517 216.98122676 -118.84406932 215.68826534 -122 214 C-122.94875 213.690625 -123.8975 213.38125 -124.875 213.0625 C-129.99728045 211.32092465 -135.51022577 209.31089758 -139 205 C-139 204.01 -139 203.02 -139 202 C-139.66 202 -140.32 202 -141 202 C-141.33 200.68 -141.66 199.36 -142 198 C-142.66 198 -143.32 198 -144 198 C-145.2450584 190.81466298 -144.88225411 185.69510147 -142 179 C-141.4121875 177.453125 -141.4121875 177.453125 -140.8125 175.875 C-138.2133655 171.75223493 -134.7435271 169.06475571 -131 166 C-129.1456837 164.35853323 -127.29458602 162.71354988 -125.4453125 161.06640625 C-124 160 -124 160 -122 160 C-122 159.34 -122 158.68 -122 158 C-118.04 156.02 -118.04 156.02 -114 154 C-114.88751953 152.87078125 -114.88751953 152.87078125 -115.79296875 151.71875 C-122.1447303 143.30841035 -125.57214043 135.2691898 -128 125 C-128.18546387 124.26048096 -128.37092773 123.52096191 -128.56201172 122.7590332 C-130.18207843 115.68397659 -130.2984794 108.79804986 -130.25 101.5625 C-130.25773437 100.41201172 -130.26546875 99.26152344 -130.2734375 98.07617188 C-130.24767041 86.70644224 -129.66677605 74.99438176 -121.41015625 66.33203125 C-117.59278711 63 -117.59278711 63 -115 63 C-114.67 62.01 -114.34 61.02 -114 60 C-113.01 60 -112.02 60 -111 60 C-111 59.34 -111 58.68 -111 58 C-110.41992188 57.68546875 -109.83984375 57.3709375 -109.2421875 57.046875 C-108.46101563 56.61890625 -107.67984375 56.1909375 -106.875 55.75 C-105.72644531 55.12351562 -105.72644531 55.12351562 -104.5546875 54.484375 C-101.90791005 52.98833834 -101.90791005 52.98833834 -99.14453125 51.046875 C-95.82059392 48.8832189 -92.40975191 47.14532338 -88.8125 45.5 C-88.15830078 45.19811768 -87.50410156 44.89623535 -86.83007812 44.58520508 C-79.09759487 41.06571581 -71.20971969 38.18925858 -63 36 C-63.495 35.0409375 -63.495 35.0409375 -64 34.0625 C-65.34987072 29.92852092 -65.86521639 26.29675257 -65 22 C-62.95484859 18.62487283 -60.557135 15.7785675 -57 14 C-52.21248247 13.41592286 -48.82951697 13.57042871 -44.5 15.8125 C-42 18 -42 18 -41 21 C-40.34 21 -39.68 21 -39 21 C-38.835 20.29875 -38.67 19.5975 -38.5 18.875 C-35.69334095 13.49557015 -30.83421137 10.67254417 -25.25 8.625 C-22 8 -22 8 -18 8 C-17.649375 7.071875 -17.29875 6.14375 -16.9375 5.1875 C-12.91681804 -1.42717033 -6.88375323 -1.75010675 0 0 Z " fill="#DEAE89" transform="translate(160,13)"/>
<path d="M0 0 C1.5 2.0625 1.5 2.0625 2 4 C0.68 5.65 -0.64 7.3 -2 9 C-1.39671875 9.37511719 -0.7934375 9.75023437 -0.171875 10.13671875 C4.33126466 13.02018076 7.90597024 15.54459715 11 20 C11.99 20.99 11.99 20.99 13 22 C13.845625 21.236875 14.69125 20.47375 15.5625 19.6875 C22.35620698 14.16467123 27.99316501 13.43466592 36.671875 13.65625 C41.3419344 14.13860355 43.47711133 14.87743958 47 18 C49.29335636 23.28469074 50.07105372 28.74819258 48.2421875 34.30078125 C46.49220604 38.51038232 44.79272977 42.27397548 41 45 C39.68 45 38.36 45 37 45 C37.94806439 41.35359849 38.79440359 38.37165505 40.625 35.0625 C42.47308628 30.94630783 42.51518685 28.48948537 42 24 C39.80279461 21.1875771 38.26339928 21.04052297 34.75 20.5 C28.53295812 21.32893892 22.84491832 25.01584662 19 30 C18.49435011 31.38645937 18.01717668 32.78349839 17.5625 34.1875 C16.8515625 36.29296875 16.8515625 36.29296875 16 38 C13.40869321 39.01124167 11.72815754 39 9 39 C8.484375 39.5775 7.96875 40.155 7.4375 40.75 C0.17022217 47.45825646 -10.65275681 49.52514646 -20.26171875 49.3125 C-26.48389293 48.6024088 -30.99210736 46.18657405 -35.1875 41.625 C-37.58307156 39.4651483 -38.67951165 39.01613054 -41.94921875 38.8515625 C-55.94669992 40.47954777 -69.11309775 46.29422651 -81.6328125 52.484375 C-85.04414708 54.01987131 -88.39073658 55.03636171 -92 56 C-95.1923011 57.2564906 -95.1923011 57.2564906 -97 60 C-98.30543287 60.77801468 -99.64548247 61.49848327 -101 62.1875 C-108.73338798 66.39337767 -115.33910317 70.70790046 -119 79 C-122.87243561 94.94639757 -122.31683792 113.03742036 -118.8125 128.9375 C-118.61648193 129.84258301 -118.42046387 130.74766602 -118.21850586 131.68017578 C-116.63504368 138.14157613 -114.25970385 142.9189627 -109.34301758 147.56616211 C-108 149 -108 149 -108 151 C-107.0409375 151.185625 -107.0409375 151.185625 -106.0625 151.375 C-105.381875 151.58125 -104.70125 151.7875 -104 152 C-103.67 152.66 -103.34 153.32 -103 154 C-100.98330173 155.13350534 -100.98330173 155.13350534 -99 156 C-99 156.66 -99 157.32 -99 158 C-98.278125 158.103125 -97.55625 158.20625 -96.8125 158.3125 C-92.82640995 159.28687757 -90.0087964 160.88311827 -87.25 163.9375 C-79.35843858 171.17143131 -67.94785893 172.17465767 -57.7578125 172.75390625 C-55 173 -55 173 -53 174 C-39.78973784 174.70828089 -19.8636893 175.5502972 -9 167 C-7.58526242 163.99532513 -7.01275046 161.33085175 -6.49609375 158.0546875 C-5.90246459 154.3994276 -4.62017296 151.54123622 -3.03515625 148.2265625 C-1.89506418 145.77428898 -0.95186172 143.28083234 0 140.75 C1.52988505 136.90156822 3.17247405 134.07701354 6 131 C6.43054688 130.42378906 6.86109375 129.84757813 7.3046875 129.25390625 C10.86503332 124.62545669 14.20295216 122.12688104 20 121 C24.36320133 120.91444703 25.57051706 121.59003901 28.75 124.625 C33.14899707 129.93312314 33.24733477 136.67944515 33.0625 143.25 C32.95836372 149.24179446 33.0239428 155.18895486 33.3203125 161.17578125 C33.37952881 162.39813477 33.43874512 163.62048828 33.49975586 164.87988281 C33.62395568 167.31607281 33.76000185 169.75169053 33.90844727 172.18652344 C33.96315186 173.30188477 34.01785645 174.41724609 34.07421875 175.56640625 C34.13182373 176.56615479 34.18942871 177.56590332 34.2487793 178.59594727 C34.12563354 179.78595337 34.12563354 179.78595337 34 181 C33.01 181.66 32.02 182.32 31 183 C25.74986624 170.59059293 25.7350869 158.2456549 26 145 C26.66 145 27.32 145 28 145 C27.35658034 142.70763041 26.7103774 140.41610969 26.0625 138.125 C25.78889648 137.14853516 25.78889648 137.14853516 25.50976562 136.15234375 C24.48107307 132.49203515 24.48107307 132.49203515 23 129 C20.21061788 128.58109782 20.21061788 128.58109782 17 129 C12.51391121 132.7049647 10.24754754 136.85459741 7.8125 142 C7.47025391 142.69867188 7.12800781 143.39734375 6.77539062 144.1171875 C4.24965658 149.31578574 1.97983632 154.2618886 1.0078125 160 C0.7607959 161.44246094 0.7607959 161.44246094 0.50878906 162.9140625 C0.25693848 164.44160156 0.25693848 164.44160156 0 166 C-0.26345215 167.55847656 -0.26345215 167.55847656 -0.53222656 169.1484375 C-1.07946152 172.4298609 -1.60437185 175.71425788 -2.125 179 C-2.30675781 180.09828125 -2.48851562 181.1965625 -2.67578125 182.328125 C-4.90909137 195.39197653 -4.90909137 195.39197653 -2 208 C-0.03177114 209.96822886 3.34808709 209.66248381 6 210 C6 210.66 6 211.32 6 212 C16.86673961 212.39277372 27.30458121 212.34895744 38 210.1875 C38.82918945 210.02217773 39.65837891 209.85685547 40.51269531 209.68652344 C44.8898859 208.72567672 48.25459508 207.55223504 52 205 C53.88933178 203.92598152 55.78527956 202.86352221 57.6875 201.8125 C58.64011719 201.28269531 59.59273437 200.75289062 60.57421875 200.20703125 C63 199 63 199 65 199 C64.73445312 198.06800781 64.46890625 197.13601562 64.1953125 196.17578125 C61.86518456 187.83689787 60.01139892 179.61796166 59 171 C58.87625 170.00742188 58.7525 169.01484375 58.625 167.9921875 C57.31817873 154.69528105 57.63695814 140.49154694 59.53515625 127.2734375 C60.11679403 123.17753447 60.10850117 119.1919893 60.0625 115.0625 C60.05573242 113.89364258 60.05573242 113.89364258 60.04882812 112.70117188 C60.03716908 110.80074732 60.01923877 108.90036294 60 107 C60.99 106.67 61.98 106.34 63 106 C63.33 106.66 63.66 107.32 64 108 C64.99 108.33 65.98 108.66 67 109 C66.67 109.99 66.34 110.98 66 112 C66.33 113.03125 66.66 114.0625 67 115.125 C68.20532297 118.89263207 67.85293782 121.93128894 67.19140625 125.7890625 C66.89087387 128.01405853 66.89087387 128.01405853 67.46875 130.21484375 C68.21742144 134.13986388 68.01400987 137.95393767 67.9375 141.9375 C67.81210963 156.48952411 68.57370285 171.22619522 72.31640625 185.34375 C73.54824908 190.1303393 74.47938 193.82365969 72.75 198.5625 C72.49734375 199.28566406 72.2446875 200.00882813 71.984375 200.75390625 C69.72694786 205.90478168 67.84336882 208.50870194 62.75 211.0625 C59.59604037 212.66412012 56.69063956 214.20822337 53.75 216.1875 C40.33195845 223.85495231 17.05680774 223.74609655 2.375 221.3125 C-0.95004035 220.63245294 -0.95004035 220.63245294 -3 222.4375 C-3.33 222.953125 -3.66 223.46875 -4 224 C-4.350625 223.484375 -4.70125 222.96875 -5.0625 222.4375 C-7.08522165 220.61148952 -7.08522165 220.61148952 -10.625 221.25 C-13.82263935 221.64368085 -13.82263935 221.64368085 -15 223 C-18.47944134 223.53768609 -21.99494836 223.80054281 -25.5 224.125 C-26.48871094 224.22425781 -27.47742188 224.32351562 -28.49609375 224.42578125 C-29.43582031 224.51472656 -30.37554687 224.60367188 -31.34375 224.6953125 C-32.21193359 224.77797363 -33.08011719 224.86063477 -33.97460938 224.94580078 C-34.64298828 224.96368652 -35.31136719 224.98157227 -36 225 C-36.33 224.67 -36.66 224.34 -37 224 C-38.93880948 224.03342775 -40.87761661 224.06700297 -42.81640625 224.1015625 C-45 224 -45 224 -48.5625 222.9375 C-52.45905082 221.87480432 -55.0623734 222.3184877 -59 223 C-59.99 222.67 -60.98 222.34 -62 222 C-64.0079517 222.242339 -66.0158366 222.48524063 -68.0234375 222.73046875 C-78.18476369 223.65058884 -87.84299451 223.50456562 -97.73046875 220.85546875 C-102.62922046 219.57371651 -107.60883217 218.7387339 -112.58984375 217.84375 C-116.07587517 216.98122676 -118.84406932 215.68826534 -122 214 C-122.94875 213.690625 -123.8975 213.38125 -124.875 213.0625 C-129.99728045 211.32092465 -135.51022577 209.31089758 -139 205 C-139 204.01 -139 203.02 -139 202 C-139.66 202 -140.32 202 -141 202 C-141.33 200.68 -141.66 199.36 -142 198 C-142.66 198 -143.32 198 -144 198 C-145.2450584 190.81466298 -144.88225411 185.69510147 -142 179 C-141.4121875 177.453125 -141.4121875 177.453125 -140.8125 175.875 C-138.2133655 171.75223493 -134.7435271 169.06475571 -131 166 C-129.1456837 164.35853323 -127.29458602 162.71354988 -125.4453125 161.06640625 C-124 160 -124 160 -122 160 C-122 159.34 -122 158.68 -122 158 C-118.04 156.02 -118.04 156.02 -114 154 C-114.88751953 152.87078125 -114.88751953 152.87078125 -115.79296875 151.71875 C-122.1447303 143.30841035 -125.57214043 135.2691898 -128 125 C-128.18546387 124.26048096 -128.37092773 123.52096191 -128.56201172 122.7590332 C-130.18207843 115.68397659 -130.2984794 108.79804986 -130.25 101.5625 C-130.25773437 100.41201172 -130.26546875 99.26152344 -130.2734375 98.07617188 C-130.24767041 86.70644224 -129.66677605 74.99438176 -121.41015625 66.33203125 C-117.59278711 63 -117.59278711 63 -115 63 C-114.67 62.01 -114.34 61.02 -114 60 C-113.01 60 -112.02 60 -111 60 C-111 59.34 -111 58.68 -111 58 C-110.41992188 57.68546875 -109.83984375 57.3709375 -109.2421875 57.046875 C-108.46101563 56.61890625 -107.67984375 56.1909375 -106.875 55.75 C-105.72644531 55.12351562 -105.72644531 55.12351562 -104.5546875 54.484375 C-101.90791005 52.98833834 -101.90791005 52.98833834 -99.14453125 51.046875 C-95.82059392 48.8832189 -92.40975191 47.14532338 -88.8125 45.5 C-88.15830078 45.19811768 -87.50410156 44.89623535 -86.83007812 44.58520508 C-79.09759487 41.06571581 -71.20971969 38.18925858 -63 36 C-63.495 35.0409375 -63.495 35.0409375 -64 34.0625 C-65.34987072 29.92852092 -65.86521639 26.29675257 -65 22 C-62.95484859 18.62487283 -60.557135 15.7785675 -57 14 C-52.21248247 13.41592286 -48.82951697 13.57042871 -44.5 15.8125 C-42 18 -42 18 -41 21 C-40.34 21 -39.68 21 -39 21 C-38.835 20.29875 -38.67 19.5975 -38.5 18.875 C-35.69334095 13.49557015 -30.83421137 10.67254417 -25.25 8.625 C-22 8 -22 8 -18 8 C-17.649375 7.071875 -17.29875 6.14375 -16.9375 5.1875 C-12.91681804 -1.42717033 -6.88375323 -1.75010675 0 0 Z " fill="#392E25" transform="translate(160,13)"/>
<path d="M0 0 C4.23178693 1.39239441 7.61994294 4.08200851 11.25390625 6.60546875 C32.42430258 21.24984895 58.74507855 24.11256461 83.84814453 19.71289062 C85.7655516 19.32823538 87.67259607 18.89286244 89.578125 18.453125 C92.421875 17.796875 92.421875 17.796875 95.421875 17.796875 C95.27952043 19.52633153 95.13283118 21.25543154 94.984375 22.984375 C94.86255859 24.42876953 94.86255859 24.42876953 94.73828125 25.90234375 C94.421875 28.796875 94.421875 28.796875 93.8984375 31.359375 C92.53800534 38.31765097 93.23082278 45.1083998 95.421875 51.796875 C96.93740653 54.09854175 96.93740653 54.09854175 98.421875 55.796875 C98.421875 56.456875 98.421875 57.116875 98.421875 57.796875 C100.731875 58.456875 103.041875 59.116875 105.421875 59.796875 C104.761875 61.446875 104.101875 63.096875 103.421875 64.796875 C102.90625 64.28125 102.390625 63.765625 101.859375 63.234375 C98.43019496 61.21203805 96.20895882 61.93942206 92.421875 62.796875 C92.091875 63.126875 91.761875 63.456875 91.421875 63.796875 C87.94243366 64.33456109 84.42692664 64.59741781 80.921875 64.921875 C79.43880859 65.07076172 79.43880859 65.07076172 77.92578125 65.22265625 C76.98605469 65.31160156 76.04632813 65.40054688 75.078125 65.4921875 C74.20994141 65.57484863 73.34175781 65.65750977 72.44726562 65.74267578 C71.77888672 65.76056152 71.11050781 65.77844727 70.421875 65.796875 C70.091875 65.466875 69.761875 65.136875 69.421875 64.796875 C67.48306552 64.83030275 65.54425839 64.86387797 63.60546875 64.8984375 C61.421875 64.796875 61.421875 64.796875 57.859375 63.734375 C53.97124542 62.67397602 51.34818167 63.10399735 47.421875 63.796875 C46.761875 63.466875 46.101875 63.136875 45.421875 62.796875 C45.421875 62.136875 45.421875 61.476875 45.421875 60.796875 C46.63875 60.425625 47.855625 60.054375 49.109375 59.671875 C53.79661951 57.87037177 55.89948937 56.19070803 58.421875 51.796875 C58.73398363 47.06596522 57.85183822 42.87921321 55.421875 38.796875 C53.3882802 37.52882934 53.3882802 37.52882934 51.421875 36.796875 C51.421875 36.136875 51.421875 35.476875 51.421875 34.796875 C50.57625 34.52875 49.730625 34.260625 48.859375 33.984375 C45.421875 32.796875 45.421875 32.796875 42.109375 31.296875 C30.95222638 26.75837387 19.25907157 26.30863945 7.421875 27.796875 C7.421875 28.456875 7.421875 29.116875 7.421875 29.796875 C8.12828125 29.88324219 8.8346875 29.96960938 9.5625 30.05859375 C16.75997399 31.0441775 23.74785354 32.49160642 30.796875 34.234375 C31.64024414 34.43957764 32.48361328 34.64478027 33.35253906 34.85620117 C47.823279 38.51683453 47.823279 38.51683453 50.421875 42.796875 C50.859375 46.296875 50.859375 46.296875 50.421875 49.796875 C47.27492665 53.44733509 42.08630248 54.56368518 37.4050293 54.97338867 C35.2819684 55.02875109 33.17027544 55.02283894 31.046875 54.984375 C30.30244141 54.97720459 29.55800781 54.97003418 28.79101562 54.96264648 C14.37518611 54.75018611 14.37518611 54.75018611 12.421875 52.796875 C11.05162846 52.61162708 9.6748429 52.4738164 8.296875 52.359375 C4.15315314 51.94631412 0.41980888 50.981448 -3.578125 49.796875 C-4.66480469 49.67828125 -5.75148438 49.5596875 -6.87109375 49.4375 C-10.89364378 48.7423491 -13.69015462 47.49328491 -17.265625 45.546875 C-18.36261719 44.96421875 -19.45960937 44.3815625 -20.58984375 43.78125 C-24.24700947 41.35270074 -26.61602942 38.72106616 -28.578125 34.796875 C-29.52664699 25.69106391 -25.3382167 18.26476723 -19.9453125 11.1953125 C-19.49414062 10.73382813 -19.04296875 10.27234375 -18.578125 9.796875 C-17.918125 9.796875 -17.258125 9.796875 -16.578125 9.796875 C-16.578125 9.136875 -16.578125 8.476875 -16.578125 7.796875 C-14.93359375 6.359375 -14.93359375 6.359375 -12.765625 4.796875 C-12.05792969 4.28125 -11.35023437 3.765625 -10.62109375 3.234375 C-6.78103112 0.53238064 -4.80296832 -0.73622142 0 0 Z " fill="#DDAC89" transform="translate(53.578125,172.203125)"/>
<path d="M0 0 C0.66 0 1.32 0 2 0 C2.33 0.66 2.66 1.32 3 2 C3.99 2.33 4.98 2.66 6 3 C5.67 3.99 5.34 4.98 5 6 C5.33 7.03125 5.66 8.0625 6 9.125 C7.20532297 12.89263207 6.85293782 15.93128894 6.19140625 19.7890625 C5.89087387 22.01405853 5.89087387 22.01405853 6.46875 24.21484375 C7.21742144 28.13986388 7.01400987 31.95393767 6.9375 35.9375 C6.81210963 50.48952411 7.57370285 65.22619522 11.31640625 79.34375 C12.54824908 84.1303393 13.47938 87.82365969 11.75 92.5625 C11.49734375 93.28566406 11.2446875 94.00882812 10.984375 94.75390625 C8.72694786 99.90478168 6.84336882 102.50870194 1.75 105.0625 C-1.40395963 106.66412012 -4.30936044 108.20822337 -7.25 110.1875 C-16.76585669 115.62513239 -30.39241055 115.61135987 -41 116 C-42.670625 116.09667969 -42.670625 116.09667969 -44.375 116.1953125 C-52.79432596 116.49889396 -61.66580403 115.55987394 -68.85546875 110.76171875 C-74.18596986 105.71259306 -74.99044996 99.65644652 -75.25 92.625 C-75.20506211 85.30012396 -73.48863656 78.14191114 -72 71 C-73.05832031 71.28875 -74.11664063 71.5775 -75.20703125 71.875 C-85.24403624 74.40140515 -94.83082085 75.38628409 -105.1875 75.375 C-106.33259033 75.37628906 -107.47768066 75.37757813 -108.6574707 75.37890625 C-114.76757494 75.29989822 -120.15044346 74.78557892 -126 73 C-125.67 71.35 -125.34 69.7 -125 68 C-123.54263913 67.80508548 -122.08405407 67.61930642 -120.625 67.4375 C-119.40683594 67.28087891 -119.40683594 67.28087891 -118.1640625 67.12109375 C-116 67 -116 67 -114 68 C-100.78973784 68.70828089 -80.8636893 69.5502972 -70 61 C-68.58526242 57.99532513 -68.01275046 55.33085175 -67.49609375 52.0546875 C-66.90246459 48.3994276 -65.62017296 45.54123622 -64.03515625 42.2265625 C-62.89506418 39.77428898 -61.95186172 37.28083234 -61 34.75 C-59.47011495 30.90156822 -57.82752595 28.07701354 -55 25 C-54.56945312 24.42378906 -54.13890625 23.84757812 -53.6953125 23.25390625 C-50.13496668 18.62545669 -46.79704784 16.12688104 -41 15 C-36.63679867 14.91444703 -35.42948294 15.59003901 -32.25 18.625 C-27.85100293 23.93312314 -27.75266523 30.67944515 -27.9375 37.25 C-28.04163628 43.24179446 -27.9760572 49.18895486 -27.6796875 55.17578125 C-27.59086304 57.00931152 -27.59086304 57.00931152 -27.50024414 58.87988281 C-27.37604432 61.31607281 -27.23999815 63.75169053 -27.09155273 66.18652344 C-27.00949585 67.85956543 -27.00949585 67.85956543 -26.92578125 69.56640625 C-26.86817627 70.56615479 -26.81057129 71.56590332 -26.7512207 72.59594727 C-26.83331787 73.38928467 -26.91541504 74.18262207 -27 75 C-27.99 75.66 -28.98 76.32 -30 77 C-35.25013376 64.59059293 -35.2649131 52.2456549 -35 39 C-34.34 39 -33.68 39 -33 39 C-33.64341966 36.70763041 -34.2896226 34.41610969 -34.9375 32.125 C-35.21110352 31.14853516 -35.21110352 31.14853516 -35.49023438 30.15234375 C-36.51892693 26.49203515 -36.51892693 26.49203515 -38 23 C-40.78938212 22.58109782 -40.78938212 22.58109782 -44 23 C-48.48608879 26.7049647 -50.75245246 30.85459741 -53.1875 36 C-53.52974609 36.69867188 -53.87199219 37.39734375 -54.22460938 38.1171875 C-56.75034342 43.31578574 -59.02016368 48.2618886 -59.9921875 54 C-60.15686523 54.96164063 -60.32154297 55.92328125 -60.49121094 56.9140625 C-60.65911133 57.93242187 -60.82701172 58.95078125 -61 60 C-61.17563477 61.03898437 -61.35126953 62.07796875 -61.53222656 63.1484375 C-62.07946152 66.4298609 -62.60437185 69.71425788 -63.125 73 C-63.30675781 74.09828125 -63.48851562 75.1965625 -63.67578125 76.328125 C-65.90909137 89.39197653 -65.90909137 89.39197653 -63 102 C-61.03177114 103.96822886 -57.65191291 103.66248381 -55 104 C-55 104.66 -55 105.32 -55 106 C-44.13326039 106.39277372 -33.69541879 106.34895744 -23 104.1875 C-22.17081055 104.02217773 -21.34162109 103.85685547 -20.48730469 103.68652344 C-16.1101141 102.72567672 -12.74540492 101.55223504 -9 99 C-7.11066822 97.92598152 -5.21472044 96.86352221 -3.3125 95.8125 C-2.35988281 95.28269531 -1.40726562 94.75289063 -0.42578125 94.20703125 C2 93 2 93 4 93 C3.73445312 92.06800781 3.46890625 91.13601562 3.1953125 90.17578125 C0.86518456 81.83689787 -0.98860108 73.61796166 -2 65 C-2.12375 64.00742188 -2.2475 63.01484375 -2.375 61.9921875 C-3.68167466 48.69677284 -3.37056575 34.48471224 -1.4609375 21.26953125 C-0.88603121 17.19159426 -0.9291415 13.23479273 -1 9.125 C-1.04539067 6.41063823 -1.04753806 3.71561183 -1 1 C-0.67 0.67 -0.34 0.34 0 0 Z " fill="#392E26" transform="translate(221,119)"/>
<path d="M0 0 C7.52901999 0.11750979 14.63887482 1.70318243 21.25 5.4375 C22.60546875 7.97265625 22.60546875 7.97265625 23.25 10.4375 C23.45625 11.18 23.6625 11.9225 23.875 12.6875 C25.26886792 22.90919811 25.26886792 22.90919811 22.25 27.4375 C22.91 27.4375 23.57 27.4375 24.25 27.4375 C24.375 35.1875 24.375 35.1875 23.25 37.4375 C23.12225197 38.83137296 23.02166758 40.22781812 22.9375 41.625 C22.52838821 45.69014251 21.49563423 48.28089086 19.28515625 51.671875 C17.79702988 54.21011319 17.0468248 56.91593482 16.25390625 59.73828125 C14.70096656 62.36679785 13.17729925 62.65222185 10.25 63.4375 C7.36902912 63.73118246 4.51913341 63.76234699 1.625 63.75 C0.861875 63.76611328 0.09875 63.78222656 -0.6875 63.79882812 C-6.20498113 63.80366802 -6.20498113 63.80366802 -8.76171875 62.0859375 C-10.12342893 59.81462645 -9.96036649 58.03202008 -9.75 55.4375 C-10.74 55.1075 -11.73 54.7775 -12.75 54.4375 C-13.6640625 52.625 -13.6640625 52.625 -14.375 50.4375 C-15.16115133 47.69480729 -15.16115133 47.69480729 -16.75 45.4375 C-17.15397852 43.23773376 -17.4978353 41.02680717 -17.8125 38.8125 C-17.98910156 37.60335937 -18.16570313 36.39421875 -18.34765625 35.1484375 C-18.73857671 31.54286047 -18.7763152 28.06022597 -18.75 24.4375 C-18.935625 23.4475 -19.12125 22.4575 -19.3125 21.4375 C-19.82772219 17.90454781 -19.37955905 14.93505029 -18.75 11.4375 C-18.09 11.4375 -17.43 11.4375 -16.75 11.4375 C-17.018125 10.880625 -17.28625 10.32375 -17.5625 9.75 C-17.75 7.4375 -17.75 7.4375 -15.625 4.6875 C-12.46619911 2.21539496 -11.58184098 2.12681019 -7.75 2.4375 C-5.09014632 -0.22235368 -3.71962687 0.07711422 0 0 Z " fill="#B38057" transform="translate(60.75,101.5625)"/>
<path d="M0 0 C-0.86323247 4.82705504 -2.3675728 9.30755834 -3.9921875 13.92578125 C-5.03466864 16.89116046 -5.03466864 16.89116046 -5.5078125 19.60546875 C-6.30476496 23.38150542 -7.06185671 25.34793447 -10.29296875 27.59375 C-22.97394911 33.48073683 -42.38110131 35.44728373 -56 32 C-57.99616646 31.79427264 -59.99256792 31.59020886 -61.99072266 31.40478516 C-69.18385699 30.71298814 -74.78220043 29.91491084 -81 26 C-82.3304426 25.24488393 -83.66371489 24.49472806 -85 23.75 C-85.99 23.1725 -86.98 22.595 -88 22 C-88 21.34 -88 20.68 -88 20 C-88.53625 19.896875 -89.0725 19.79375 -89.625 19.6875 C-92.65012928 18.81180468 -95.2504489 17.52752839 -98 16 C-98.33 15.34 -98.66 14.68 -99 14 C-99.66 13.690625 -100.32 13.38125 -101 13.0625 C-103 12 -103 12 -104 9 C-100.7 9 -97.4 9 -94 9 C-94 9.66 -94 10.32 -94 11 C-92.58521865 11.64995297 -91.16808513 12.29478722 -89.75 12.9375 C-88.96109375 13.29714844 -88.1721875 13.65679687 -87.359375 14.02734375 C-83.36912583 15.67233058 -79.96443471 16.12757736 -75.6484375 16.1328125 C-74.63265625 16.13410156 -73.616875 16.13539063 -72.5703125 16.13671875 C-70.98863281 16.13091797 -70.98863281 16.13091797 -69.375 16.125 C-68.3128125 16.12886719 -67.250625 16.13273437 -66.15625 16.13671875 C-65.14304688 16.13542969 -64.12984375 16.13414062 -63.0859375 16.1328125 C-62.1582959 16.13168457 -61.2306543 16.13055664 -60.27490234 16.12939453 C-57.96759394 16.14867187 -57.96759394 16.14867187 -56 15 C-54.62451844 14.91691362 -53.24514204 14.89263984 -51.8671875 14.90234375 C-51.06152344 14.90556641 -50.25585938 14.90878906 -49.42578125 14.91210938 C-48.58402344 14.92048828 -47.74226563 14.92886719 -46.875 14.9375 C-45.60076172 14.94426758 -45.60076172 14.94426758 -44.30078125 14.95117188 C-42.20049091 14.96297126 -40.1002367 14.98090694 -38 15 C-38 14.34 -38 13.68 -38 13 C-35.62683882 12.18177267 -33.2517058 11.37031293 -30.875 10.5625 C-30.20984375 10.33240234 -29.5446875 10.10230469 -28.859375 9.86523438 C-24.90851454 8.52891393 -21.12672647 7.66688812 -17 7 C-15.27223572 6.43091444 -13.56140302 5.80696235 -11.875 5.125 C-11.04742187 4.79757813 -10.21984375 4.47015625 -9.3671875 4.1328125 C-6.94438694 3.07475121 -6.94438694 3.07475121 -4.8828125 1.3671875 C-3 0 -3 0 0 0 Z " fill="#C89E7C" transform="translate(159,155)"/>
<path d="M0 0 C2.375 -0.125 2.375 -0.125 5 0 C5.66 0.66 6.32 1.32 7 2 C9.37468476 2.16713569 9.37468476 2.16713569 12 2 C14.6875 1.875 14.6875 1.875 17 2 C17.66 2.66 18.32 3.32 19 4 C20.99958364 4.04080783 23.00045254 4.04254356 25 4 C25.33 4.33 25.66 4.66 26 5 C28.67221443 5.24157296 31.32201623 5.42537687 34 5.5625 C34.77077881 5.6049585 35.54155762 5.64741699 36.33569336 5.69116211 C41.56402991 5.96500374 46.76398985 6.09520018 52 6 C52.33 5.34 52.66 4.68 53 4 C53.09796875 5.30195313 53.1959375 6.60390625 53.296875 7.9453125 C53.44701769 9.67195341 53.59810956 11.39851196 53.75 13.125 C53.811875 13.9809375 53.87375 14.836875 53.9375 15.71875 C54.457198 21.3488117 55.56660848 24.51984278 59 29 C59 29.66 59 30.32 59 31 C61.31 31.66 63.62 32.32 66 33 C65.34 34.65 64.68 36.3 64 38 C63.484375 37.484375 62.96875 36.96875 62.4375 36.4375 C59.00831996 34.41516305 56.78708382 35.14254706 53 36 C52.67 36.33 52.34 36.66 52 37 C48.52055866 37.53768609 45.00505164 37.80054281 41.5 38.125 C40.51128906 38.22425781 39.52257812 38.32351562 38.50390625 38.42578125 C37.56417969 38.51472656 36.62445313 38.60367188 35.65625 38.6953125 C34.78806641 38.77797363 33.91988281 38.86063477 33.02539062 38.94580078 C32.35701172 38.96368652 31.68863281 38.98157227 31 39 C30.505 38.505 30.505 38.505 30 38 C28.06119052 38.03342775 26.12238339 38.06700297 24.18359375 38.1015625 C22 38 22 38 18.4375 36.9375 C14.54937042 35.87710102 11.92630667 36.30712235 8 37 C7.34 36.67 6.68 36.34 6 36 C6 35.34 6 34.68 6 34 C7.216875 33.62875 8.43375 33.2575 9.6875 32.875 C14.37474451 31.07349677 16.47761437 29.39383303 19 25 C19.31210863 20.26909022 18.42996322 16.08233821 16 12 C13.9664052 10.73195434 13.9664052 10.73195434 12 10 C12 9.34 12 8.68 12 8 C10.700625 7.5978125 10.700625 7.5978125 9.375 7.1875 C6.08208036 6.02888013 3.08872125 4.61790161 0 3 C0 2.01 0 1.02 0 0 Z " fill="#DDAD89" transform="translate(93,199)"/>
<path d="M0 0 C-2.64960955 3.63094642 -5.01824456 5.89851796 -9 8 C-8.30132812 8.27714844 -7.60265625 8.55429687 -6.8828125 8.83984375 C-5.97273438 9.20207031 -5.06265625 9.56429688 -4.125 9.9375 C-3.22007812 10.29714844 -2.31515625 10.65679687 -1.3828125 11.02734375 C1 12 1 12 3 13 C3 13.66 3 14.32 3 15 C3.598125 15.2475 4.19625 15.495 4.8125 15.75 C7.51690582 17.29537476 8.56742238 18.20647365 10 21 C10.73657557 24.19389072 10.84214058 26.81917603 10 30 C7.72163457 32.9309343 5.06213415 34.93235712 2 37 C1.113125 37.61875 0.22625 38.2375 -0.6875 38.875 C-8.1006928 41.39268812 -16.60547362 42.1858951 -23.98828125 39.2109375 C-28.73141094 36.35584972 -32.36993556 32.46775239 -33.75 27.0625 C-32.4500164 21.75423362 -30.63918189 16.66082332 -25.83984375 13.640625 C-23.58612164 12.66238168 -21.31073947 11.83186621 -19 11 C-18.05125 10.4225 -17.1025 9.845 -16.125 9.25 C-14 8 -14 8 -11 8 C-10.9175 7.236875 -10.835 6.47375 -10.75 5.6875 C-10 3 -10 3 -8.3125 1.1875 C-5.39975854 -0.3082321 -3.23000416 -0.22022756 0 0 Z " fill="#DD8D56" transform="translate(157,16)"/>
<path d="M0 0 C5.26268116 0.45705668 8.37032209 1.52088288 12.625 4.625 C35.40966206 20.31050011 61.03823225 24.71616375 88.42626953 19.91601562 C90.3436766 19.53136038 92.25072107 19.09598744 94.15625 18.65625 C97 18 97 18 100 18 C99.85764543 19.72945653 99.71095618 21.45855654 99.5625 23.1875 C99.44068359 24.63189453 99.44068359 24.63189453 99.31640625 26.10546875 C99.02333849 28.78649602 98.57296246 31.3662986 98 34 C97.34 33.67 96.68 33.34 96 33 C94.43307575 33.11803572 92.87044326 33.29506875 91.3125 33.5 C83.5445314 34.30251861 74.47152397 34.49050799 67 32 C66.13375 31.835 65.2675 31.67 64.375 31.5 C62 31 62 31 61 30 C58.44380996 29.9684421 55.90219659 30.06826631 53.34765625 30.16015625 C51 30 51 30 49 28 C47.00511766 27.63729412 45.00401011 27.30830925 43 27 C40.99594773 26.34561559 38.99571323 25.67939174 37 25 C35.700625 24.814375 35.700625 24.814375 34.375 24.625 C32 24 32 24 30.3125 22.1875 C27.85572431 19.863523 26.13511117 19.16132229 23 18 C19.0716637 16.53909602 16.82864948 15.14294386 14 12 C12.33607955 11.32650839 10.66967972 10.6590841 9 10 C8.34 9.01 7.68 8.02 7 7 C5.7625 6.566875 5.7625 6.566875 4.5 6.125 C2 5 2 5 0.6875 2.375 C0.460625 1.59125 0.23375 0.8075 0 0 Z " fill="#C79D7B" transform="translate(49,172)"/>
<path d="M0 0 C3 0.5 3 0.5 4.75 2.5 C6.8432019 7.52368457 8 12.04419818 8 17.5 C7.34 17.5 6.68 17.5 6 17.5 C6 23.11 6 28.72 6 34.5 C-1.85701233 37.867291 -1.85701233 37.867291 -5.3125 37.25 C-6.06015625 37.13269531 -6.8078125 37.01539063 -7.578125 36.89453125 C-8.37734375 36.76433594 -9.1765625 36.63414062 -10 36.5 C-11.85293883 36.30073144 -13.70716618 36.11307538 -15.5625 35.9375 C-16.40941406 35.85371094 -17.25632813 35.76992187 -18.12890625 35.68359375 C-18.74636719 35.62300781 -19.36382812 35.56242187 -20 35.5 C-18.43788922 23.81110211 -13.94023744 12.3298999 -6 3.5 C-5.50886719 2.94699219 -5.01773438 2.39398438 -4.51171875 1.82421875 C-3 0.5 -3 0.5 0 0 Z " fill="#B27E56" transform="translate(180,140.5)"/>
<path d="M0 0 C5.21067684 4.48697172 8.52048541 9.73571763 9.30322266 16.6965332 C9.35652989 19.53701161 9.30150665 22.34892774 9.1875 25.1875 C9.13483588 27.09753781 9.08653393 29.00770175 9.04296875 30.91796875 C9.02282715 31.79888184 9.00268555 32.67979492 8.98193359 33.58740234 C9.00351506 36.46940272 9.38072621 39.18726789 10 42 C10.66 42 11.32 42 12 42 C14.01203829 46.14982898 14.72413488 49.41381245 14 54 C11.95413047 56.4136663 9.54496746 58.14329418 7 60 C6.175 60.804375 5.35 61.60875 4.5 62.4375 C2 64 2 64 -1.5625 63.8125 C-4.04691426 63.22527481 -6.52453438 62.62292899 -9 62 C-10.0482715 55.50071667 -10.49185268 49.24654473 -8 43 C-6.68 42.01 -5.36 41.02 -4 40 C-2.68 44.62 -1.36 49.24 0 54 C0.99 53.505 0.99 53.505 2 53 C1.95456055 51.7625 1.95456055 51.7625 1.90820312 50.5 C1.76916292 46.66676839 1.63342042 42.83343058 1.5 39 C1.47599121 38.31316132 1.45198242 37.62632263 1.42724609 36.91867065 C1.11879563 27.9842299 0.89976635 19.06908613 1.0625 10.12890625 C0.99372008 6.6856113 0.54970392 3.39699842 0 0 Z " fill="#C89D7C" transform="translate(191,141)"/>
<path d="M0 0 C2.9375 1.5 2.9375 1.5 5 4 C5.74332309 9.76075392 4.94858551 12.94528198 2 18 C1.26238551 19.45407875 0.53344506 20.91258475 -0.1875 22.375 C-0.79166667 23.58333333 -1.39583333 24.79166667 -2 26 C-8.72045875 23.80962826 -15.36724003 21.44234339 -22 19 C-20.38182006 10.81391327 -17.71356681 7.02884155 -11 2 C-7.20248586 -0.20008945 -4.41042042 -0.46425478 0 0 Z " fill="#B27F56" transform="translate(198,33)"/>
<path d="M0 0 C1.73017508 0.45451184 3.45909877 0.91378857 5.1875 1.375 C6.15042969 1.63023437 7.11335938 1.88546875 8.10546875 2.1484375 C16.85213582 4.72168098 16.85213582 4.72168098 19 8 C19.4375 11.5 19.4375 11.5 19 15 C16.20249595 18.2451047 12.14840651 19.39948192 8 20 C3.32805956 20.15863106 -1.32745175 20.11665169 -6 20 C-4.07289294 9.44191344 -4.07289294 9.44191344 -2 5 C-1.34 5 -0.68 5 0 5 C0 3.35 0 1.7 0 0 Z " fill="#B27F56" transform="translate(85,207)"/>
<path d="M0 0 C2 2 2 2 4 5 C3.625 7.6875 3.625 7.6875 3 10 C0.3099385 9.0008343 -2.06048132 7.96219918 -4.5 6.4375 C-10.47441991 3.00220855 -17.63537002 3.30496131 -24.1875 4.875 C-27.86369 5.87083212 -27.86369 5.87083212 -30.6875 7.1875 C-33.50296236 8.1767165 -35.16940318 7.80874195 -38 7 C-38.36421725 1.53674121 -38.36421725 1.53674121 -36.8125 -0.75 C-26.56897603 -7.81449929 -10.08311631 -6.72207754 0 0 Z " fill="#392E26" transform="translate(167,82)"/>
<path d="M0 0 C2.65986525 2.06139557 4.6440468 3.78703847 5.61328125 7.08984375 C5.93495648 10.77964791 5.73344282 13.06292318 3.41015625 16.03125 C1.36730259 17.88197347 -0.71676952 19.45829575 -3 21 C-3.886875 21.61875 -4.77375 22.2375 -5.6875 22.875 C-13.47081005 25.51838832 -21.43144354 25.8213586 -29.1953125 23.08203125 C-31.42804844 21.74335624 -32.56747451 20.14878824 -34 18 C-33.10539063 18.10699219 -32.21078125 18.21398437 -31.2890625 18.32421875 C-23.41538191 19.10487152 -17.31936568 19.06450951 -10 16 C-9.23429687 15.70867188 -8.46859375 15.41734375 -7.6796875 15.1171875 C-4.03530252 13.5627724 -2.37263867 12.71422411 -0.5 9.125 C-0.00256186 6.0160116 0.14964994 3.14264866 0 0 Z " fill="#D77352" transform="translate(162,32)"/>
<path d="M0 0 C0.99 0 1.98 0 3 0 C3.02505615 0.6297876 3.0501123 1.2595752 3.07592773 1.90844727 C3.19278427 4.79329341 3.31510021 7.67788395 3.4375 10.5625 C3.47681641 11.55314453 3.51613281 12.54378906 3.55664062 13.56445312 C3.67817858 16.37852425 3.8276025 19.18861464 4 22 C4.0402832 22.71438232 4.08056641 23.42876465 4.12207031 24.16479492 C4.3918475 27.08648187 4.70660724 28.68753013 6.7421875 30.85546875 C7.44601563 31.29503906 8.14984375 31.73460937 8.875 32.1875 C11.95484427 34.15928222 13.93257997 35.96388317 16 39 C12.13209997 39 10.98680587 38.72629646 7.75 37 C7.04359375 36.62875 6.3371875 36.2575 5.609375 35.875 C5.07828125 35.58625 4.5471875 35.2975 4 35 C3.67 35.99 3.34 36.98 3 38 C2.01 38 1.02 38 0 38 C-0.06058594 37.10539062 -0.12117188 36.21078125 -0.18359375 35.2890625 C-0.56919005 29.72461134 -0.9559863 24.17026814 -1.5625 18.625 C-2.23425426 12.01580487 -2.527137 6.3178425 0 0 Z " fill="#3C3026" transform="translate(58,120)"/>
<path d="M0 0 C5.43613091 2.28544252 6.70039797 5.83864998 9.24609375 10.94140625 C11.08563787 15.9235049 11.2184619 20.26951905 10.55859375 25.49609375 C6.98235305 24.30401352 6.87863426 23.72751414 5.24609375 20.49609375 C3.43820669 17.08240972 1.54662931 13.79368789 -0.56640625 10.55859375 C-1.04335937 9.82769531 -1.5203125 9.09679687 -2.01171875 8.34375 C-3.48518202 6.23681577 -3.48518202 6.23681577 -6.44140625 4.49609375 C-6.44140625 3.50609375 -6.44140625 2.51609375 -6.44140625 1.49609375 C-3.44140625 -0.50390625 -3.44140625 -0.50390625 0 0 Z " fill="#3C3027" transform="translate(204.44140625,58.50390625)"/>
<path d="M0 0 C2.76391436 1.45873258 3.80135382 2.64054501 5.3125 5.375 C6.08463709 8.32315979 5.8292565 10.09760224 5 13 C3.35 13.33 1.7 13.66 0 14 C-0.33 11.36 -0.66 8.72 -1 6 C-1.99 6.495 -1.99 6.495 -3 7 C-3.15149298 10.62885324 -3.15149298 10.62885324 -2 14 C-3.32 14.33 -4.64 14.66 -6 15 C-8.79643726 11.52563855 -10.0130856 9.78513624 -9.9375 5.25 C-8.35123808 -0.24904132 -5.21521328 -0.53216462 0 0 Z " fill="#B17F56" transform="translate(111,33)"/>
<path d="M0 0 C1.95703125 0.84375 1.95703125 0.84375 4 2 C4.6875 4.5 4.6875 4.5 5 8 C5.16614175 9.60422112 5.33285254 11.20838336 5.5 12.8125 C5.75432753 15.39881535 5.99869932 17.98441553 6.21484375 20.57421875 C6.32505859 21.77498047 6.32505859 21.77498047 6.4375 23 C6.49808594 23.721875 6.55867188 24.44375 6.62109375 25.1875 C6.87823982 27.24320668 6.87823982 27.24320668 9 29 C9.33 30.175625 9.66 31.35125 10 32.5625 C10.33 33.696875 10.66 34.83125 11 36 C11.66 36.33 12.32 36.66 13 37 C13 37.99 13 38.98 13 40 C8.88199454 38.52928376 6.90466359 35.78384358 5 32 C3.83267238 28.46699423 3.03112991 24.88544737 2.25 21.25 C2.02957031 20.3115625 1.80914062 19.373125 1.58203125 18.40625 C0.19885557 12.18625501 -0.28091656 6.36397386 0 0 Z " fill="#D9A884" transform="translate(38,120)"/>
<path d="M0 0 C1.65 1.32 3.3 2.64 5 4 C4.67 5.32 4.34 6.64 4 8 C2.10787298 8.53414112 0.21108364 9.05178329 -1.6875 9.5625 C-2.74324219 9.85253906 -3.79898438 10.14257812 -4.88671875 10.44140625 C-8.00695382 11.00124767 -9.97693234 10.84690764 -13 10 C-13 9.01 -13 8.02 -13 7 C-9.04402043 3.79754035 -5.97404039 2.69405215 -1 2 C-0.67 1.34 -0.34 0.68 0 0 Z " fill="#3F3329" transform="translate(225,81)"/>
<path d="M0 0 C-0.33 0.99 -0.66 1.98 -1 3 C-6.53553018 5.56524569 -12.19652489 5.9344917 -18 4 C-18.66 3.67 -19.32 3.34 -20 3 C-19.67 2.01 -19.34 1.02 -19 0 C-17.10630916 -0.36544911 -15.20991218 -0.71689175 -13.3125 -1.0625 C-12.25675781 -1.25972656 -11.20101562 -1.45695312 -10.11328125 -1.66015625 C-6.28656495 -2.0778781 -3.44050398 -1.72025199 0 0 Z " fill="#382E25" transform="translate(231,97)"/>
<path d="M0 0 C4.06662662 1.55271198 5.57519602 2.36279402 8 6 C5 8 5 8 2.44140625 7.828125 C1.49136719 7.63734375 0.54132813 7.4465625 -0.4375 7.25 C-1.38496094 7.06953125 -2.33242187 6.8890625 -3.30859375 6.703125 C-5.82660033 6.04530035 -7.81710992 5.41216579 -10 4 C-10.33 3.01 -10.66 2.02 -11 1 C-7.54641994 -0.72679003 -3.78326166 -0.36243011 0 0 Z " fill="#362C24" transform="translate(225,109)"/>
<path d="M0 0 C-0.47593556 4.28342007 -2.94761685 6.15573389 -6 9 C-6.886875 9.928125 -7.77375 10.85625 -8.6875 11.8125 C-11 14 -11 14 -13 14 C-12.58762675 8.50169004 -10.48085436 4.21525427 -7 0 C-3.86650268 -1.04449911 -3.01031744 -0.93423645 0 0 Z " fill="#3C3026" transform="translate(197,40)"/>
<path d="M0 0 C1.0625 1.8125 1.0625 1.8125 2 4 C1.67 4.99 1.34 5.98 1 7 C0.77281504 9.56634861 0.58391816 12.11678107 0.4375 14.6875 C0.39431641 15.38939453 0.35113281 16.09128906 0.30664062 16.81445312 C0.2008264 18.54275206 0.09993419 20.2713511 0 22 C-1.32 22 -2.64 22 -4 22 C-4.62599202 14.17509977 -2.32514129 7.39062767 0 0 Z " fill="#410000" transform="translate(19,106)"/>
<path d="M0 0 C0.33 0 0.66 0 1 0 C1.04898438 0.62648437 1.09796875 1.25296875 1.1484375 1.8984375 C1.22320312 2.71570313 1.29796875 3.53296875 1.375 4.375 C1.44460937 5.18710938 1.51421875 5.99921875 1.5859375 6.8359375 C1.82892588 9.20334191 1.82892588 9.20334191 4 11 C4.33 12.175625 4.66 13.35125 5 14.5625 C5.33 15.696875 5.66 16.83125 6 18 C6.66 18.33 7.32 18.66 8 19 C8 19.99 8 20.98 8 22 C4.78409676 20.85146313 2.60541687 19.07990591 0.75 16.1953125 C-0.99617497 11.08411283 -0.26262055 5.32536123 0 0 Z " fill="#D2A17E" transform="translate(43,138)"/>
<path d="M0 0 C-2.64116988 3.61938095 -4.97413046 5.98706523 -9 8 C-9.66 8 -10.32 8 -11 8 C-10.67842796 5.02545866 -10.37860258 3.40664722 -8.3125 1.1875 C-5.39975854 -0.3082321 -3.23000416 -0.22022756 0 0 Z " fill="#7F9853" transform="translate(157,16)"/>
<path d="M0 0 C2.125 0.9375 2.125 0.9375 4 2 C3.67 3.32 3.34 4.64 3 6 C1.35 5.67 -0.3 5.34 -2 5 C-2 3.68 -2 2.36 -2 1 C-1.34 0.67 -0.68 0.34 0 0 Z " fill="#48382B" transform="translate(49,114)"/>
<path d="M0 0 C1.98 0 3.96 0 6 0 C6 1.32 6 2.64 6 4 C4.35 4.33 2.7 4.66 1 5 C0.67 3.35 0.34 1.7 0 0 Z " fill="#413328" transform="translate(67,115)"/>
<path d="M0 0 C0.33 0.99 0.66 1.98 1 3 C-0.32 3.33 -1.64 3.66 -3 4 C-3 3.34 -3 2.68 -3 2 C-2.01 1.34 -1.02 0.68 0 0 Z " fill="#4B0000" transform="translate(29,92)"/>
<path d="M0 0 C2.0625 0.4375 2.0625 0.4375 4 1 C3.34 1.66 2.68 2.32 2 3 C1.01 2.34 0.02 1.68 -1 1 C-0.67 0.67 -0.34 0.34 0 0 Z " fill="#271411" transform="translate(40,3)"/>
<path d="M0 0 C2 3 2 3 2 5 C1.34 5 0.68 5 0 5 C0 3.35 0 1.7 0 0 Z " fill="#CB8C61" transform="translate(228,121)"/>
<path d="M0 0 C0.66 0.33 1.32 0.66 2 1 C1.01 1 0.02 1 -1 1 C-0.67 0.67 -0.34 0.34 0 0 Z " fill="#DFCA8A" transform="translate(139,244)"/>
<path d="M0 0 C1 4 1 4 1 4 Z " fill="#D5A379" transform="translate(8,190)"/>
<path d="" fill="#E9947F" transform="translate(0,0)"/>
<path d="" fill="#3B3434" transform="translate(0,0)"/>
<path d="M0 0 C2 1 2 1 2 1 Z " fill="#7F7F7F" transform="translate(245,140)"/>
<path d="M0 0 C2 1 2 1 2 1 Z " fill="#2A0000" transform="translate(31,23)"/>
<path d="M0 0 C2 1 2 1 2 1 Z " fill="#424210" transform="translate(28,15)"/>
<path d="" fill="#FFFF00" transform="translate(0,0)"/>
<path d="" fill="#FFFFFF" transform="translate(0,0)"/>
<path d="" fill="#E3AA8E" transform="translate(0,0)"/>
<path d="" fill="#E7B692" transform="translate(0,0)"/>
<path d="" fill="#550000" transform="translate(0,0)"/>
<path d="" fill="#000000" transform="translate(0,0)"/>
<path d="" fill="#372424" transform="translate(0,0)"/>
<path d="" fill="#000000" transform="translate(0,0)"/>
<path d="" fill="#FFFFFF" transform="translate(0,0)"/>
<path d="" fill="#FF8080" transform="translate(0,0)"/>
<path d="" fill="#FF8080" transform="translate(0,0)"/>
<path d="" fill="#FFFFFF" transform="translate(0,0)"/>
<path d="" fill="#2B2B2B" transform="translate(0,0)"/>
<path d="" fill="#392F26" transform="translate(0,0)"/>
<path d="" fill="#000000" transform="translate(0,0)"/>
<path d="" fill="#000000" transform="translate(0,0)"/>
<path d="" fill="#800000" transform="translate(0,0)"/>
<path d="" fill="#000000" transform="translate(0,0)"/>
<path d="" fill="#362828" transform="translate(0,0)"/>
<path d="" fill="#000000" transform="translate(0,0)"/>
</svg>
